<?xml version="1.0" encoding="UTF-8" standalone="no"?>
<!DOCTYPE svg PUBLIC "-//W3C//DTD SVG 1.1//EN"
 "http://www.w3.org/Graphics/SVG/1.1/DTD/svg11.dtd">
<!-- Generated by graphviz version 2.46.1 (0)
 -->
<!-- Title: snakemake_dag Pages: 1 -->
<svg width="1292pt" height="332pt"
 viewBox="0.00 0.00 1292.00 332.00" xmlns="http://www.w3.org/2000/svg" xmlns:xlink="http://www.w3.org/1999/xlink">
<g id="graph0" class="graph" transform="scale(1 1) rotate(0) translate(4 328)">
<title>snakemake_dag</title>
<polygon fill="white" stroke="transparent" points="-4,4 -4,-328 1288,-328 1288,4 -4,4"/>
<!-- 0 -->
<g id="node1" class="node">
<title>0</title>
<path fill="none" stroke="#d8a456" stroke-width="2" d="M739,-36C739,-36 709,-36 709,-36 703,-36 697,-30 697,-24 697,-24 697,-12 697,-12 697,-6 703,0 709,0 709,0 739,0 739,0 745,0 751,-6 751,-12 751,-12 751,-24 751,-24 751,-30 745,-36 739,-36"/>
<text text-anchor="middle" x="724" y="-15.5" font-family="sans" font-size="10.00">all</text>
</g>
<!-- 1 -->
<g id="node2" class="node">
<title>1</title>
<path fill="none" stroke="#78d856" stroke-width="2" d="M739,-108C739,-108 709,-108 709,-108 703,-108 697,-102 697,-96 697,-96 697,-84 697,-84 697,-78 703,-72 709,-72 709,-72 739,-72 739,-72 745,-72 751,-78 751,-84 751,-84 751,-96 751,-96 751,-102 745,-108 739,-108"/>
<text text-anchor="middle" x="724" y="-87.5" font-family="sans" font-size="10.00">upload</text>
</g>
<!-- 1&#45;&gt;0 -->
<g id="edge1" class="edge">
<title>1&#45;&gt;0</title>
<path fill="none" stroke="grey" stroke-width="2" d="M724,-71.7C724,-63.98 724,-54.71 724,-46.11"/>
<polygon fill="grey" stroke="grey" stroke-width="2" points="727.5,-46.1 724,-36.1 720.5,-46.1 727.5,-46.1"/>
</g>
<!-- 2 -->
<g id="node3" class="node">
<title>2</title>
<path fill="none" stroke="#56a2d8" stroke-width="2" d="M230,-180C230,-180 200,-180 200,-180 194,-180 188,-174 188,-168 188,-168 188,-156 188,-156 188,-150 194,-144 200,-144 200,-144 230,-144 230,-144 236,-144 242,-150 242,-156 242,-156 242,-168 242,-168 242,-174 236,-180 230,-180"/>
<text text-anchor="middle" x="215" y="-159.5" font-family="sans" font-size="10.00">reformat</text>
</g>
<!-- 2&#45;&gt;1 -->
<g id="edge2" class="edge">
<title>2&#45;&gt;1</title>
<path fill="none" stroke="grey" stroke-width="2" d="M242.09,-152.19C252.04,-149.22 263.45,-146.13 274,-144 425.35,-113.49 609.13,-98.61 686.66,-93.33"/>
<polygon fill="grey" stroke="grey" stroke-width="2" points="687.13,-96.8 696.88,-92.64 686.66,-89.82 687.13,-96.8"/>
</g>
<!-- 3 -->
<g id="node4" class="node">
<title>3</title>
<path fill="none" stroke="#c6d856" stroke-width="2" d="M159.5,-252C159.5,-252 128.5,-252 128.5,-252 122.5,-252 116.5,-246 116.5,-240 116.5,-240 116.5,-228 116.5,-228 116.5,-222 122.5,-216 128.5,-216 128.5,-216 159.5,-216 159.5,-216 165.5,-216 171.5,-222 171.5,-228 171.5,-228 171.5,-240 171.5,-240 171.5,-246 165.5,-252 159.5,-252"/>
<text text-anchor="middle" x="144" y="-231.5" font-family="sans" font-size="10.00">maphost</text>
</g>
<!-- 3&#45;&gt;2 -->
<g id="edge11" class="edge">
<title>3&#45;&gt;2</title>
<path fill="none" stroke="grey" stroke-width="2" d="M161.55,-215.7C170.23,-207.14 180.86,-196.66 190.35,-187.3"/>
<polygon fill="grey" stroke="grey" stroke-width="2" points="192.99,-189.62 197.65,-180.1 188.07,-184.63 192.99,-189.62"/>
</g>
<!-- 4 -->
<g id="node5" class="node">
<title>4</title>
<path fill="none" stroke="#d85656" stroke-width="2" d="M136,-324C136,-324 12,-324 12,-324 6,-324 0,-318 0,-312 0,-312 0,-300 0,-300 0,-294 6,-288 12,-288 12,-288 136,-288 136,-288 142,-288 148,-294 148,-300 148,-300 148,-312 148,-312 148,-318 142,-324 136,-324"/>
<text text-anchor="middle" x="74" y="-309" font-family="sans" font-size="10.00">trim</text>
<text text-anchor="middle" x="74" y="-298" font-family="sans" font-size="10.00">run: Cov7755&#45;05_S164_L001</text>
</g>
<!-- 4&#45;&gt;3 -->
<g id="edge12" class="edge">
<title>4&#45;&gt;3</title>
<path fill="none" stroke="grey" stroke-width="2" d="M91.3,-287.7C99.86,-279.14 110.34,-268.66 119.7,-259.3"/>
<polygon fill="grey" stroke="grey" stroke-width="2" points="122.3,-261.65 126.9,-252.1 117.35,-256.7 122.3,-261.65"/>
</g>
<!-- 5 -->
<g id="node6" class="node">
<title>5</title>
<path fill="none" stroke="#56a2d8" stroke-width="2" d="M325,-180C325,-180 295,-180 295,-180 289,-180 283,-174 283,-168 283,-168 283,-156 283,-156 283,-150 289,-144 295,-144 295,-144 325,-144 325,-144 331,-144 337,-150 337,-156 337,-156 337,-168 337,-168 337,-174 331,-180 325,-180"/>
<text text-anchor="middle" x="310" y="-159.5" font-family="sans" font-size="10.00">reformat</text>
</g>
<!-- 5&#45;&gt;1 -->
<g id="edge3" class="edge">
<title>5&#45;&gt;1</title>
<path fill="none" stroke="grey" stroke-width="2" d="M337.16,-156.41C409.1,-144.24 604.65,-111.18 686.83,-97.28"/>
<polygon fill="grey" stroke="grey" stroke-width="2" points="687.46,-100.73 696.74,-95.61 686.29,-93.83 687.46,-100.73"/>
</g>
<!-- 6 -->
<g id="node7" class="node">
<title>6</title>
<path fill="none" stroke="#c6d856" stroke-width="2" d="M278.5,-252C278.5,-252 247.5,-252 247.5,-252 241.5,-252 235.5,-246 235.5,-240 235.5,-240 235.5,-228 235.5,-228 235.5,-222 241.5,-216 247.5,-216 247.5,-216 278.5,-216 278.5,-216 284.5,-216 290.5,-222 290.5,-228 290.5,-228 290.5,-240 290.5,-240 290.5,-246 284.5,-252 278.5,-252"/>
<text text-anchor="middle" x="263" y="-231.5" font-family="sans" font-size="10.00">maphost</text>
</g>
<!-- 6&#45;&gt;5 -->
<g id="edge13" class="edge">
<title>6&#45;&gt;5</title>
<path fill="none" stroke="grey" stroke-width="2" d="M274.62,-215.7C280.14,-207.47 286.85,-197.48 292.93,-188.42"/>
<polygon fill="grey" stroke="grey" stroke-width="2" points="295.85,-190.36 298.52,-180.1 290.04,-186.46 295.85,-190.36"/>
</g>
<!-- 7 -->
<g id="node8" class="node">
<title>7</title>
<path fill="none" stroke="#d85656" stroke-width="2" d="M302,-324C302,-324 178,-324 178,-324 172,-324 166,-318 166,-312 166,-312 166,-300 166,-300 166,-294 172,-288 178,-288 178,-288 302,-288 302,-288 308,-288 314,-294 314,-300 314,-300 314,-312 314,-312 314,-318 308,-324 302,-324"/>
<text text-anchor="middle" x="240" y="-309" font-family="sans" font-size="10.00">trim</text>
<text text-anchor="middle" x="240" y="-298" font-family="sans" font-size="10.00">run: Cov7755&#45;01_S160_L001</text>
</g>
<!-- 7&#45;&gt;6 -->
<g id="edge14" class="edge">
<title>7&#45;&gt;6</title>
<path fill="none" stroke="grey" stroke-width="2" d="M245.69,-287.7C248.25,-279.9 251.33,-270.51 254.18,-261.83"/>
<polygon fill="grey" stroke="grey" stroke-width="2" points="257.58,-262.7 257.38,-252.1 250.93,-260.51 257.58,-262.7"/>
</g>
<!-- 8 -->
<g id="node9" class="node">
<title>8</title>
<path fill="none" stroke="#56a2d8" stroke-width="2" d="M491,-180C491,-180 461,-180 461,-180 455,-180 449,-174 449,-168 449,-168 449,-156 449,-156 449,-150 455,-144 461,-144 461,-144 491,-144 491,-144 497,-144 503,-150 503,-156 503,-156 503,-168 503,-168 503,-174 497,-180 491,-180"/>
<text text-anchor="middle" x="476" y="-159.5" font-family="sans" font-size="10.00">reformat</text>
</g>
<!-- 8&#45;&gt;1 -->
<g id="edge4" class="edge">
<title>8&#45;&gt;1</title>
<path fill="none" stroke="grey" stroke-width="2" d="M503.01,-153.38C547.53,-140.81 636.37,-115.73 686.8,-101.5"/>
<polygon fill="grey" stroke="grey" stroke-width="2" points="687.97,-104.81 696.64,-98.72 686.07,-98.07 687.97,-104.81"/>
</g>
<!-- 9 -->
<g id="node10" class="node">
<title>9</title>
<path fill="none" stroke="#c6d856" stroke-width="2" d="M444.5,-252C444.5,-252 413.5,-252 413.5,-252 407.5,-252 401.5,-246 401.5,-240 401.5,-240 401.5,-228 401.5,-228 401.5,-222 407.5,-216 413.5,-216 413.5,-216 444.5,-216 444.5,-216 450.5,-216 456.5,-222 456.5,-228 456.5,-228 456.5,-240 456.5,-240 456.5,-246 450.5,-252 444.5,-252"/>
<text text-anchor="middle" x="429" y="-231.5" font-family="sans" font-size="10.00">maphost</text>
</g>
<!-- 9&#45;&gt;8 -->
<g id="edge15" class="edge">
<title>9&#45;&gt;8</title>
<path fill="none" stroke="grey" stroke-width="2" d="M440.62,-215.7C446.14,-207.47 452.85,-197.48 458.93,-188.42"/>
<polygon fill="grey" stroke="grey" stroke-width="2" points="461.85,-190.36 464.52,-180.1 456.04,-186.46 461.85,-190.36"/>
</g>
<!-- 10 -->
<g id="node11" class="node">
<title>10</title>
<path fill="none" stroke="#d85656" stroke-width="2" d="M468,-324C468,-324 344,-324 344,-324 338,-324 332,-318 332,-312 332,-312 332,-300 332,-300 332,-294 338,-288 344,-288 344,-288 468,-288 468,-288 474,-288 480,-294 480,-300 480,-300 480,-312 480,-312 480,-318 474,-324 468,-324"/>
<text text-anchor="middle" x="406" y="-309" font-family="sans" font-size="10.00">trim</text>
<text text-anchor="middle" x="406" y="-298" font-family="sans" font-size="10.00">run: Cov7755&#45;03_S162_L001</text>
</g>
<!-- 10&#45;&gt;9 -->
<g id="edge16" class="edge">
<title>10&#45;&gt;9</title>
<path fill="none" stroke="grey" stroke-width="2" d="M411.69,-287.7C414.25,-279.9 417.33,-270.51 420.18,-261.83"/>
<polygon fill="grey" stroke="grey" stroke-width="2" points="423.58,-262.7 423.38,-252.1 416.93,-260.51 423.58,-262.7"/>
</g>
<!-- 11 -->
<g id="node12" class="node">
<title>11</title>
<path fill="none" stroke="#56a2d8" stroke-width="2" d="M621,-180C621,-180 591,-180 591,-180 585,-180 579,-174 579,-168 579,-168 579,-156 579,-156 579,-150 585,-144 591,-144 591,-144 621,-144 621,-144 627,-144 633,-150 633,-156 633,-156 633,-168 633,-168 633,-174 627,-180 621,-180"/>
<text text-anchor="middle" x="606" y="-159.5" font-family="sans" font-size="10.00">reformat</text>
</g>
<!-- 11&#45;&gt;1 -->
<g id="edge5" class="edge">
<title>11&#45;&gt;1</title>
<path fill="none" stroke="grey" stroke-width="2" d="M633.07,-144.94C649.3,-135.32 670.13,-122.96 687.76,-112.5"/>
<polygon fill="grey" stroke="grey" stroke-width="2" points="689.83,-115.34 696.65,-107.23 686.26,-109.32 689.83,-115.34"/>
</g>
<!-- 12 -->
<g id="node13" class="node">
<title>12</title>
<path fill="none" stroke="#c6d856" stroke-width="2" d="M598.5,-252C598.5,-252 567.5,-252 567.5,-252 561.5,-252 555.5,-246 555.5,-240 555.5,-240 555.5,-228 555.5,-228 555.5,-222 561.5,-216 567.5,-216 567.5,-216 598.5,-216 598.5,-216 604.5,-216 610.5,-222 610.5,-228 610.5,-228 610.5,-240 610.5,-240 610.5,-246 604.5,-252 598.5,-252"/>
<text text-anchor="middle" x="583" y="-231.5" font-family="sans" font-size="10.00">maphost</text>
</g>
<!-- 12&#45;&gt;11 -->
<g id="edge17" class="edge">
<title>12&#45;&gt;11</title>
<path fill="none" stroke="grey" stroke-width="2" d="M588.69,-215.7C591.25,-207.9 594.33,-198.51 597.18,-189.83"/>
<polygon fill="grey" stroke="grey" stroke-width="2" points="600.58,-190.7 600.38,-180.1 593.93,-188.51 600.58,-190.7"/>
</g>
<!-- 13 -->
<g id="node14" class="node">
<title>13</title>
<path fill="none" stroke="#d85656" stroke-width="2" d="M634,-324C634,-324 510,-324 510,-324 504,-324 498,-318 498,-312 498,-312 498,-300 498,-300 498,-294 504,-288 510,-288 510,-288 634,-288 634,-288 640,-288 646,-294 646,-300 646,-300 646,-312 646,-312 646,-318 640,-324 634,-324"/>
<text text-anchor="middle" x="572" y="-309" font-family="sans" font-size="10.00">trim</text>
<text text-anchor="middle" x="572" y="-298" font-family="sans" font-size="10.00">run: Cov7755&#45;04_S163_L001</text>
</g>
<!-- 13&#45;&gt;12 -->
<g id="edge18" class="edge">
<title>13&#45;&gt;12</title>
<path fill="none" stroke="grey" stroke-width="2" d="M574.72,-287.7C575.93,-279.98 577.39,-270.71 578.74,-262.11"/>
<polygon fill="grey" stroke="grey" stroke-width="2" points="582.22,-262.53 580.31,-252.1 575.3,-261.44 582.22,-262.53"/>
</g>
<!-- 14 -->
<g id="node15" class="node">
<title>14</title>
<path fill="none" stroke="#56a2d8" stroke-width="2" d="M739,-180C739,-180 709,-180 709,-180 703,-180 697,-174 697,-168 697,-168 697,-156 697,-156 697,-150 703,-144 709,-144 709,-144 739,-144 739,-144 745,-144 751,-150 751,-156 751,-156 751,-168 751,-168 751,-174 745,-180 739,-180"/>
<text text-anchor="middle" x="724" y="-159.5" font-family="sans" font-size="10.00">reformat</text>
</g>
<!-- 14&#45;&gt;1 -->
<g id="edge6" class="edge">
<title>14&#45;&gt;1</title>
<path fill="none" stroke="grey" stroke-width="2" d="M724,-143.7C724,-135.98 724,-126.71 724,-118.11"/>
<polygon fill="grey" stroke="grey" stroke-width="2" points="727.5,-118.1 724,-108.1 720.5,-118.1 727.5,-118.1"/>
</g>
<!-- 15 -->
<g id="node16" class="node">
<title>15</title>
<path fill="none" stroke="#c6d856" stroke-width="2" d="M741.5,-252C741.5,-252 710.5,-252 710.5,-252 704.5,-252 698.5,-246 698.5,-240 698.5,-240 698.5,-228 698.5,-228 698.5,-222 704.5,-216 710.5,-216 710.5,-216 741.5,-216 741.5,-216 747.5,-216 753.5,-222 753.5,-228 753.5,-228 753.5,-240 753.5,-240 753.5,-246 747.5,-252 741.5,-252"/>
<text text-anchor="middle" x="726" y="-231.5" font-family="sans" font-size="10.00">maphost</text>
</g>
<!-- 15&#45;&gt;14 -->
<g id="edge19" class="edge">
<title>15&#45;&gt;14</title>
<path fill="none" stroke="grey" stroke-width="2" d="M725.51,-215.7C725.29,-207.98 725.02,-198.71 724.77,-190.11"/>
<polygon fill="grey" stroke="grey" stroke-width="2" points="728.27,-190 724.49,-180.1 721.28,-190.2 728.27,-190"/>
</g>
<!-- 16 -->
<g id="node17" class="node">
<title>16</title>
<path fill="none" stroke="#d85656" stroke-width="2" d="M800,-324C800,-324 676,-324 676,-324 670,-324 664,-318 664,-312 664,-312 664,-300 664,-300 664,-294 670,-288 676,-288 676,-288 800,-288 800,-288 806,-288 812,-294 812,-300 812,-300 812,-312 812,-312 812,-318 806,-324 800,-324"/>
<text text-anchor="middle" x="738" y="-309" font-family="sans" font-size="10.00">trim</text>
<text text-anchor="middle" x="738" y="-298" font-family="sans" font-size="10.00">run: Cov7755&#45;02_S161_L001</text>
</g>
<!-- 16&#45;&gt;15 -->
<g id="edge20" class="edge">
<title>16&#45;&gt;15</title>
<path fill="none" stroke="grey" stroke-width="2" d="M735.03,-287.7C733.71,-279.98 732.12,-270.71 730.65,-262.11"/>
<polygon fill="grey" stroke="grey" stroke-width="2" points="734.07,-261.37 728.93,-252.1 727.17,-262.55 734.07,-261.37"/>
</g>
<!-- 17 -->
<g id="node18" class="node">
<title>17</title>
<path fill="none" stroke="#56a2d8" stroke-width="2" d="M811,-180C811,-180 781,-180 781,-180 775,-180 769,-174 769,-168 769,-168 769,-156 769,-156 769,-150 775,-144 781,-144 781,-144 811,-144 811,-144 817,-144 823,-150 823,-156 823,-156 823,-168 823,-168 823,-174 817,-180 811,-180"/>
<text text-anchor="middle" x="796" y="-159.5" font-family="sans" font-size="10.00">reformat</text>
</g>
<!-- 17&#45;&gt;1 -->
<g id="edge7" class="edge">
<title>17&#45;&gt;1</title>
<path fill="none" stroke="grey" stroke-width="2" d="M778.2,-143.7C769.4,-135.14 758.62,-124.66 749,-115.3"/>
<polygon fill="grey" stroke="grey" stroke-width="2" points="751.2,-112.57 741.59,-108.1 746.32,-117.58 751.2,-112.57"/>
</g>
<!-- 18 -->
<g id="node19" class="node">
<title>18</title>
<path fill="none" stroke="#c6d856" stroke-width="2" d="M815.5,-252C815.5,-252 784.5,-252 784.5,-252 778.5,-252 772.5,-246 772.5,-240 772.5,-240 772.5,-228 772.5,-228 772.5,-222 778.5,-216 784.5,-216 784.5,-216 815.5,-216 815.5,-216 821.5,-216 827.5,-222 827.5,-228 827.5,-228 827.5,-240 827.5,-240 827.5,-246 821.5,-252 815.5,-252"/>
<text text-anchor="middle" x="800" y="-231.5" font-family="sans" font-size="10.00">maphost</text>
</g>
<!-- 18&#45;&gt;17 -->
<g id="edge21" class="edge">
<title>18&#45;&gt;17</title>
<path fill="none" stroke="grey" stroke-width="2" d="M799.01,-215.7C798.57,-207.98 798.04,-198.71 797.55,-190.11"/>
<polygon fill="grey" stroke="grey" stroke-width="2" points="801.04,-189.89 796.98,-180.1 794.05,-190.29 801.04,-189.89"/>
</g>
<!-- 19 -->
<g id="node20" class="node">
<title>19</title>
<path fill="none" stroke="#d85656" stroke-width="2" d="M940,-324C940,-324 842,-324 842,-324 836,-324 830,-318 830,-312 830,-312 830,-300 830,-300 830,-294 836,-288 842,-288 842,-288 940,-288 940,-288 946,-288 952,-294 952,-300 952,-300 952,-312 952,-312 952,-318 946,-324 940,-324"/>
<text text-anchor="middle" x="891" y="-309" font-family="sans" font-size="10.00">trim</text>
<text text-anchor="middle" x="891" y="-298" font-family="sans" font-size="10.00">run: Cov2171_S2_L001</text>
</g>
<!-- 19&#45;&gt;18 -->
<g id="edge22" class="edge">
<title>19&#45;&gt;18</title>
<path fill="none" stroke="grey" stroke-width="2" d="M868.51,-287.7C857.04,-278.88 842.94,-268.03 830.52,-258.47"/>
<polygon fill="grey" stroke="grey" stroke-width="2" points="832.3,-255.43 822.24,-252.1 828.03,-260.98 832.3,-255.43"/>
</g>
<!-- 20 -->
<g id="node21" class="node">
<title>20</title>
<path fill="none" stroke="#56a2d8" stroke-width="2" d="M883,-180C883,-180 853,-180 853,-180 847,-180 841,-174 841,-168 841,-168 841,-156 841,-156 841,-150 847,-144 853,-144 853,-144 883,-144 883,-144 889,-144 895,-150 895,-156 895,-156 895,-168 895,-168 895,-174 889,-180 883,-180"/>
<text text-anchor="middle" x="868" y="-159.5" font-family="sans" font-size="10.00">reformat</text>
</g>
<!-- 20&#45;&gt;1 -->
<g id="edge8" class="edge">
<title>20&#45;&gt;1</title>
<path fill="none" stroke="grey" stroke-width="2" d="M840.91,-147.83C818.23,-136.81 785.64,-120.97 760.63,-108.81"/>
<polygon fill="grey" stroke="grey" stroke-width="2" points="761.98,-105.57 751.45,-104.35 758.92,-111.87 761.98,-105.57"/>
</g>
<!-- 21 -->
<g id="node22" class="node">
<title>21</title>
<path fill="none" stroke="#c6d856" stroke-width="2" d="M888.5,-252C888.5,-252 857.5,-252 857.5,-252 851.5,-252 845.5,-246 845.5,-240 845.5,-240 845.5,-228 845.5,-228 845.5,-222 851.5,-216 857.5,-216 857.5,-216 888.5,-216 888.5,-216 894.5,-216 900.5,-222 900.5,-228 900.5,-228 900.5,-240 900.5,-240 900.5,-246 894.5,-252 888.5,-252"/>
<text text-anchor="middle" x="873" y="-231.5" font-family="sans" font-size="10.00">maphost</text>
</g>
<!-- 21&#45;&gt;20 -->
<g id="edge23" class="edge">
<title>21&#45;&gt;20</title>
<path fill="none" stroke="grey" stroke-width="2" d="M871.76,-215.7C871.21,-207.98 870.55,-198.71 869.94,-190.11"/>
<polygon fill="grey" stroke="grey" stroke-width="2" points="873.43,-189.83 869.22,-180.1 866.44,-190.33 873.43,-189.83"/>
</g>
<!-- 22 -->
<g id="node23" class="node">
<title>22</title>
<path fill="none" stroke="#d85656" stroke-width="2" d="M1106,-324C1106,-324 982,-324 982,-324 976,-324 970,-318 970,-312 970,-312 970,-300 970,-300 970,-294 976,-288 982,-288 982,-288 1106,-288 1106,-288 1112,-288 1118,-294 1118,-300 1118,-300 1118,-312 1118,-312 1118,-318 1112,-324 1106,-324"/>
<text text-anchor="middle" x="1044" y="-309" font-family="sans" font-size="10.00">trim</text>
<text text-anchor="middle" x="1044" y="-298" font-family="sans" font-size="10.00">run: Cov7755&#45;06_S165_L001</text>
</g>
<!-- 22&#45;&gt;21 -->
<g id="edge24" class="edge">
<title>22&#45;&gt;21</title>
<path fill="none" stroke="grey" stroke-width="2" d="M999.09,-287.93C972.95,-277.83 939.45,-264.58 910,-252 909.91,-251.96 909.81,-251.92 909.72,-251.88"/>
<polygon fill="grey" stroke="grey" stroke-width="2" points="911.37,-248.78 900.81,-247.97 908.56,-255.19 911.37,-248.78"/>
</g>
<!-- 23 -->
<g id="node24" class="node">
<title>23</title>
<path fill="none" stroke="#56a2d8" stroke-width="2" d="M955,-180C955,-180 925,-180 925,-180 919,-180 913,-174 913,-168 913,-168 913,-156 913,-156 913,-150 919,-144 925,-144 925,-144 955,-144 955,-144 961,-144 967,-150 967,-156 967,-156 967,-168 967,-168 967,-174 961,-180 955,-180"/>
<text text-anchor="middle" x="940" y="-159.5" font-family="sans" font-size="10.00">reformat</text>
</g>
<!-- 23&#45;&gt;1 -->
<g id="edge9" class="edge">
<title>23&#45;&gt;1</title>
<path fill="none" stroke="grey" stroke-width="2" d="M912.67,-147.56C909.77,-146.29 906.84,-145.08 904,-144 855.58,-125.57 797.85,-109.58 761.06,-100.12"/>
<polygon fill="grey" stroke="grey" stroke-width="2" points="761.82,-96.7 751.27,-97.62 760.1,-103.48 761.82,-96.7"/>
</g>
<!-- 24 -->
<g id="node25" class="node">
<title>24</title>
<path fill="none" stroke="#c6d856" stroke-width="2" d="M961.5,-252C961.5,-252 930.5,-252 930.5,-252 924.5,-252 918.5,-246 918.5,-240 918.5,-240 918.5,-228 918.5,-228 918.5,-222 924.5,-216 930.5,-216 930.5,-216 961.5,-216 961.5,-216 967.5,-216 973.5,-222 973.5,-228 973.5,-228 973.5,-240 973.5,-240 973.5,-246 967.5,-252 961.5,-252"/>
<text text-anchor="middle" x="946" y="-231.5" font-family="sans" font-size="10.00">maphost</text>
</g>
<!-- 24&#45;&gt;23 -->
<g id="edge25" class="edge">
<title>24&#45;&gt;23</title>
<path fill="none" stroke="grey" stroke-width="2" d="M944.52,-215.7C943.86,-207.98 943.06,-198.71 942.32,-190.11"/>
<polygon fill="grey" stroke="grey" stroke-width="2" points="945.81,-189.77 941.47,-180.1 938.83,-190.37 945.81,-189.77"/>
</g>
<!-- 25 -->
<g id="node26" class="node">
<title>25</title>
<path fill="none" stroke="#d85656" stroke-width="2" d="M1272,-324C1272,-324 1148,-324 1148,-324 1142,-324 1136,-318 1136,-312 1136,-312 1136,-300 1136,-300 1136,-294 1142,-288 1148,-288 1148,-288 1272,-288 1272,-288 1278,-288 1284,-294 1284,-300 1284,-300 1284,-312 1284,-312 1284,-318 1278,-324 1272,-324"/>
<text text-anchor="middle" x="1210" y="-309" font-family="sans" font-size="10.00">trim</text>
<text text-anchor="middle" x="1210" y="-298" font-family="sans" font-size="10.00">run: Cov7755&#45;07_S166_L001</text>
</g>
<!-- 25&#45;&gt;24 -->
<g id="edge26" class="edge">
<title>25&#45;&gt;24</title>
<path fill="none" stroke="grey" stroke-width="2" d="M1135.76,-289.36C1080.85,-277.47 1010.95,-261.57 983,-252 982.9,-251.97 982.81,-251.93 982.71,-251.9"/>
<polygon fill="grey" stroke="grey" stroke-width="2" points="984.23,-248.73 973.64,-248.42 981.72,-255.27 984.23,-248.73"/>
</g>
<!-- 26 -->
<g id="node27" class="node">
<title>26</title>
<path fill="none" stroke="#56d87b" stroke-width="2" d="M1040.5,-180C1040.5,-180 997.5,-180 997.5,-180 991.5,-180 985.5,-174 985.5,-168 985.5,-168 985.5,-156 985.5,-156 985.5,-150 991.5,-144 997.5,-144 997.5,-144 1040.5,-144 1040.5,-144 1046.5,-144 1052.5,-150 1052.5,-156 1052.5,-156 1052.5,-168 1052.5,-168 1052.5,-174 1046.5,-180 1040.5,-180"/>
<text text-anchor="middle" x="1019" y="-159.5" font-family="sans" font-size="10.00">parse_form</text>
</g>
<!-- 26&#45;&gt;1 -->
<g id="edge10" class="edge">
<title>26&#45;&gt;1</title>
<path fill="none" stroke="grey" stroke-width="2" d="M985.39,-147.09C982.24,-145.97 979.08,-144.92 976,-144 901.05,-121.48 810.77,-104.98 761.18,-96.79"/>
<polygon fill="grey" stroke="grey" stroke-width="2" points="761.66,-93.32 751.23,-95.17 760.54,-100.23 761.66,-93.32"/>
</g>
<!-- 27 -->
<g id="node28" class="node">
<title>27</title>
<path fill="none" stroke="#56d8c9" stroke-width="2" d="M1034,-252C1034,-252 1004,-252 1004,-252 998,-252 992,-246 992,-240 992,-240 992,-228 992,-228 992,-222 998,-216 1004,-216 1004,-216 1034,-216 1034,-216 1040,-216 1046,-222 1046,-228 1046,-228 1046,-240 1046,-240 1046,-246 1040,-252 1034,-252"/>
<text text-anchor="middle" x="1019" y="-231.5" font-family="sans" font-size="10.00">form</text>
</g>
<!-- 27&#45;&gt;26 -->
<g id="edge27" class="edge">
<title>27&#45;&gt;26</title>
<path fill="none" stroke="grey" stroke-width="2" d="M1019,-215.7C1019,-207.98 1019,-198.71 1019,-190.11"/>
<polygon fill="grey" stroke="grey" stroke-width="2" points="1022.5,-190.1 1019,-180.1 1015.5,-190.1 1022.5,-190.1"/>
</g>
</g>
</svg>
